{"title":"The Amityville Murders 2018 1080p WEB-DL DD 5.1 x264 [MW]","magnet":"magnet:?xt=urn:btih:ed236aa3308d41b8c7dcdd51f1296881a683ae2e&dn=The+Amityville+Murders+2018+1080p+WEB-DL+DD+5.1+x264+%5BMW%5D&tr=udp%3A%2F%2Ftracker.leechers-paradise.org%3A6969&tr=udp%3A%2F%2Fzer0day.ch%3A1337&tr=udp%3A%2F%2Fopen.demonii.com%3A1337&tr=udp%3A%2F%2Ftracker.coppersurfer.tk%3A6969&tr=udp%3A%2F%2Fexodus.desync.com%3A6969","uploader":"MFreaky","categoryP":"video","categoryS":"hd___movies","size":"2270300442","seeders":"1","leechers":"9","description":" <a href=\"https://pichub.site/image/ETb50\" rel=\"nofollow\" target=\"_NEW\">https://pichub.site/image/ETb50</a> <a href=\"\nhttps://pichub.site/image/ETeqV\" rel=\"nofollow\" target=\"_NEW\">\nhttps://pichub.site/image/ETeqV</a> <a href=\"\nhttps://pichub.site/image/EF40N\" rel=\"nofollow\" target=\"_NEW\">\nhttps://pichub.site/image/EF40N</a> <a href=\"\nhttps://pichub.site/image/ETqwT\" rel=\"nofollow\" target=\"_NEW\">\nhttps://pichub.site/image/ETqwT</a> <a href=\"\nhttps://pichub.site/image/EFMEZ\" rel=\"nofollow\" target=\"_NEW\">\nhttps://pichub.site/image/EFMEZ</a>\r\n\r\nIMDB <a href=\"\nhttps://www.imdb.com/title/tt6984258/\" rel=\"nofollow\" target=\"_NEW\">\nhttps://www.imdb.com/title/tt6984258/</a>\r\n\r\nVideo\r\nFormat                                   : AVC\r\nFormat/Info                              : Advanced Video Codec\r\nFormat profile                           : High@L4.1\r\nFormat settings                          : CABAC / 5 Ref Frames\r\nFormat settings, CABAC                   : Yes\r\nFormat settings, RefFrames               : 5 frames\r\nCodec ID                                 : V_MPEG4/ISO/AVC\r\nDuration                                 : 1 h 38 min\r\nBit rate                                 : 2 800 kb/s\r\nWidth                                    : 1 908 pixels\r\nHeight                                   : 794 pixels\r\nDisplay aspect ratio                     : 2.40:1\r\nFrame rate mode                          : Constant\r\nFrame rate                               : 23.976 (24000/1001) FPS\r\nColor space                              : YUV\r\nChroma subsampling                       : 4:2:0\r\nBit depth                                : 8 bits\r\nBits/(Pixel*Frame)                       : 0.077\r\nStream size                              : 1.85 GiB (88%)\r\nWriting library                          : x264 core 155 r2901 7d0ff22\r\n\r\nAudio\r\nFormat                                   : AC-3\r\nFormat/Info                              : Audio Coding 3\r\nCodec ID                                 : A_AC3\r\nDuration                                 : 1 h 38 min\r\nBit rate mode                            : Constant\r\nBit rate                                 : 384 kb/s\r\nChannel(s)                               : 6 channels\r\nChannel positions                        : Front: L C R, Side: L R, LFE\r\nSampling rate                            : 48.0 kHz\r\nFrame rate                               : 31.250 FPS (1536 SPF)\r\nBit depth                                : 16 bits\r\nStream size                              : 269 MiB (12%)\r\nLanguage                                 : English","last_updated":"2018-10-03T12:07:50.246Z","parsed":{"xt":"urn:btih:ed236aa3308d41b8c7dcdd51f1296881a683ae2e","dn":"The Amityville Murders 2018 1080p WEB-DL DD 5.1 x264 [MW]","tr":["udp://exodus.desync.com:6969","udp://open.demonii.com:1337","udp://tracker.coppersurfer.tk:6969","udp://tracker.leechers-paradise.org:6969","udp://zer0day.ch:1337"],"infoHash":"ed236aa3308d41b8c7dcdd51f1296881a683ae2e","infoHashBuffer":{"type":"Buffer","data":[237,35,106,163,48,141,65,184,199,220,221,81,241,41,104,129,166,131,174,46]},"name":"The Amityville Murders 2018 1080p WEB-DL DD 5.1 x264 [MW]","announce":["udp://exodus.desync.com:6969","udp://open.demonii.com:1337","udp://tracker.coppersurfer.tk:6969","udp://tracker.leechers-paradise.org:6969","udp://zer0day.ch:1337"],"urlList":[]}}